<svg xmlns="http://www.w3.org/2000/svg" viewBox="0 0 846.8 270.25"><defs><style>.cls-1{fill:#00293d;}</style></defs><g id="Ebene_2" data-name="Ebene 2"><g id="Ebene_1-2" data-name="Ebene 1"><path class="cls-1" d="M652.92,47.62V39.88h-7.65V86h8V63q0-7.47,3.71-11.52t10.19-4a14.34,14.34,0,0,1,1.83.09V39.45a21.42,21.42,0,0,0-9.9,2.09A13.93,13.93,0,0,0,652.92,47.62ZM612.4,46.49a13.35,13.35,0,0,1,9.61,3.7,15,15,0,0,1,4.53,9.52H598.25a15,15,0,0,1,4.54-9.57A13.47,13.47,0,0,1,612.4,46.49Zm21.8,16.7a26.47,26.47,0,0,0-2.79-12.35,20.73,20.73,0,0,0-7.74-8.39,21.32,21.32,0,0,0-11.27-3,21.77,21.77,0,0,0-11.36,3,21,21,0,0,0-7.9,8.39,25.21,25.21,0,0,0-2.87,12.08,24.92,24.92,0,0,0,3,12.18,21,21,0,0,0,8.36,8.39,25.15,25.15,0,0,0,12.4,3,24.82,24.82,0,0,0,9.94-1.92A19.36,19.36,0,0,0,631.37,79L627,73.62a16,16,0,0,1-12.73,5.56,16.24,16.24,0,0,1-10.86-3.69,14.67,14.67,0,0,1-5.12-9.78H634C634.14,64.66,634.2,63.82,634.2,63.19ZM561.31,39.45a21.8,21.8,0,0,0-10,2.26A17.16,17.16,0,0,0,544.33,48a14.79,14.79,0,0,0-6.15-6.35A18.87,18.87,0,0,0,529,39.45a20.33,20.33,0,0,0-8.9,1.87,15.63,15.63,0,0,0-6.32,5.43V39.88h-7.66V86h8V62.23q0-7.4,3.58-11.35a12.38,12.38,0,0,1,9.65-4q5.49,0,8.44,3.39t3,10.08V86h8V62.23q0-7.4,3.57-11.35a12.41,12.41,0,0,1,9.66-4q5.49,0,8.44,3.39t3,10.08V86h8V59.45q0-9.91-4.86-15T561.31,39.45Zm-88,0a21.76,21.76,0,0,0-10,2.26A17.1,17.1,0,0,0,456.38,48a14.76,14.76,0,0,0-6.16-6.35,18.81,18.81,0,0,0-9.15-2.17,20.3,20.3,0,0,0-8.9,1.87,15.73,15.73,0,0,0-6.33,5.43V39.88h-7.65V86h8V62.23q0-7.4,3.57-11.35a12.41,12.41,0,0,1,9.66-4q5.49,0,8.44,3.39t3,10.08V86h8V62.23q0-7.4,3.58-11.35a12.39,12.39,0,0,1,9.65-4q5.49,0,8.45,3.39t2.95,10.08V86h8V59.45q0-9.91-4.87-15T473.35,39.45Zm-90.69,40.6a11.37,11.37,0,0,1-7.16-2,6.55,6.55,0,0,1-2.58-5.47q0-7.14,10.15-7.13h12.32v6.43a12.07,12.07,0,0,1-4.83,6A14.34,14.34,0,0,1,382.66,80.05Zm1.83-40.6A32.9,32.9,0,0,0,374.42,41a24,24,0,0,0-8.16,4.39l3.33,6.26A19.64,19.64,0,0,1,375.92,48a22.57,22.57,0,0,1,7.65-1.34c3.88,0,6.82.95,8.82,2.87s3,4.66,3,8.25v1.66H382.74q-9.24,0-13.48,3.69A12.34,12.34,0,0,0,365,72.92a12.2,12.2,0,0,0,4.45,9.83c3,2.49,6.92,3.74,11.85,3.74a20.93,20.93,0,0,0,8.78-1.7,12.78,12.78,0,0,0,5.7-4.91V86h7.58V58.14q0-9.3-4.87-14T384.49,39.45ZM351.7,86h9.82l-20.39-27,18.56-19H350L326,62.84V21.45h-8V86h8V73.36l9.15-8.87Z"/><path class="cls-1" d="M482.34,131.09v-7.74h-7.65v46.08h8v-23q0-7.48,3.71-11.52t10.19-4a16.94,16.94,0,0,1,1.83.08v-8.08a21.55,21.55,0,0,0-9.9,2.08A13.9,13.9,0,0,0,482.34,131.09Zm-41.6,31.56a14.17,14.17,0,0,1-12.94-7.78,19.32,19.32,0,0,1,0-17,14.14,14.14,0,0,1,5.32-5.69,15.5,15.5,0,0,1,15.23,0,13.78,13.78,0,0,1,5.28,5.69,19.69,19.69,0,0,1,0,17,14.1,14.1,0,0,1-5.28,5.74A14.4,14.4,0,0,1,440.74,162.65Zm0,7.3a22.86,22.86,0,0,0,11.77-3,21.56,21.56,0,0,0,8.15-8.39,26.33,26.33,0,0,0,0-24.26,21.29,21.29,0,0,0-8.15-8.34,23.13,23.13,0,0,0-11.77-3,23.37,23.37,0,0,0-11.82,3,21.35,21.35,0,0,0-8.2,8.34,26.41,26.41,0,0,0,0,24.26,21.61,21.61,0,0,0,8.2,8.39A23.1,23.1,0,0,0,440.74,170Zm-52.26-47a21.77,21.77,0,0,0-9,1.82,16.6,16.6,0,0,0-6.53,5.13v-25h-8v64.51h8V145.7q0-7.39,3.75-11.35t10.23-4q5.75,0,8.82,3.4t3.08,10.08v25.56h8V142.91q0-9.82-5-14.91T388.48,122.92Zm-51.26,47a22,22,0,0,0,10.7-2.56A17.84,17.84,0,0,0,355.2,160l-6.08-4a13.66,13.66,0,0,1-5.16,5,14.18,14.18,0,0,1-6.82,1.65,15.18,15.18,0,0,1-7.78-2A14,14,0,0,1,324,155a19.61,19.61,0,0,1,0-17.05,14,14,0,0,1,5.41-5.69,15.28,15.28,0,0,1,7.78-2,14.18,14.18,0,0,1,6.82,1.65,13.73,13.73,0,0,1,5.16,5l6.08-4.09a17.55,17.55,0,0,0-7.28-7.3,22.31,22.31,0,0,0-10.7-2.52,23.91,23.91,0,0,0-12,3,21.55,21.55,0,0,0-8.28,8.34,26.1,26.1,0,0,0,0,24.26,21.81,21.81,0,0,0,8.28,8.39A23.63,23.63,0,0,0,337.22,170Z"/><path class="cls-1" d="M825,213.39a13.35,13.35,0,0,1,9.61,3.7,15,15,0,0,1,4.53,9.52H810.85a15,15,0,0,1,4.54-9.57A13.47,13.47,0,0,1,825,213.39Zm21.8,16.7A26.47,26.47,0,0,0,844,217.74a20.73,20.73,0,0,0-7.74-8.39,21.32,21.32,0,0,0-11.27-3,21.77,21.77,0,0,0-11.36,3,21,21,0,0,0-7.9,8.39,25.21,25.21,0,0,0-2.87,12.08,24.92,24.92,0,0,0,3,12.18,21,21,0,0,0,8.36,8.39,25.15,25.15,0,0,0,12.4,3,24.82,24.82,0,0,0,9.94-1.92,19.36,19.36,0,0,0,7.45-5.56l-4.41-5.39a16,16,0,0,1-12.73,5.56A16.24,16.24,0,0,1,816,242.39a14.67,14.67,0,0,1-5.12-9.78h35.78C846.74,231.56,846.8,230.72,846.8,230.09Zm-77.72,16a14.2,14.2,0,0,1-12.94-7.78,19.39,19.39,0,0,1,0-17,14.19,14.19,0,0,1,5.33-5.7,15.4,15.4,0,0,1,15.18,0,13.79,13.79,0,0,1,5.33,5.7,19.76,19.76,0,0,1,0,17,14,14,0,0,1-5.33,5.74A14.44,14.44,0,0,1,769.08,246.08Zm14.73-57.73v25.39a17.17,17.17,0,0,0-6.66-5.52,20.26,20.26,0,0,0-8.73-1.87,22.42,22.42,0,0,0-11.49,3,20.77,20.77,0,0,0-7.94,8.26,25.25,25.25,0,0,0-2.87,12.25A25.57,25.57,0,0,0,749,242.13a20.75,20.75,0,0,0,7.94,8.3,22.42,22.42,0,0,0,11.49,3,20.16,20.16,0,0,0,9-2,17.51,17.51,0,0,0,6.74-5.83v7.31h7.66V188.35Zm-67.57,57.73a14.17,14.17,0,0,1-12.93-7.78,19.3,19.3,0,0,1,0-17,14.1,14.1,0,0,1,5.32-5.7,15.5,15.5,0,0,1,15.23,0,13.87,13.87,0,0,1,5.28,5.7,19.66,19.66,0,0,1,0,17,14.11,14.11,0,0,1-5.28,5.74A14.44,14.44,0,0,1,716.24,246.08Zm0,7.31a22.88,22.88,0,0,0,11.78-3,21.63,21.63,0,0,0,8.15-8.39,26.31,26.31,0,0,0,0-24.25,21.39,21.39,0,0,0-8.15-8.35,24.69,24.69,0,0,0-23.59,0,21.24,21.24,0,0,0-8.2,8.35,26.39,26.39,0,0,0,0,24.25,21.48,21.48,0,0,0,8.2,8.39A23.07,23.07,0,0,0,716.24,253.39Zm-44.35-38.87v-7.74h-7.65v46.09h8v-23q0-7.47,3.7-11.52t10.19-4a14.34,14.34,0,0,1,1.83.09v-8.09a21.42,21.42,0,0,0-9.9,2.09A13.93,13.93,0,0,0,671.89,214.52Zm-40.52-1.13a13.35,13.35,0,0,1,9.61,3.7,15.08,15.08,0,0,1,4.54,9.52h-28.3a15,15,0,0,1,4.54-9.57A13.47,13.47,0,0,1,631.37,213.39Zm21.8,16.7a26.47,26.47,0,0,0-2.79-12.35,20.7,20.7,0,0,0-7.73-8.39,21.35,21.35,0,0,0-11.28-3,21.77,21.77,0,0,0-11.36,3,21.1,21.1,0,0,0-7.9,8.39,25.21,25.21,0,0,0-2.87,12.08,24.92,24.92,0,0,0,3,12.18,21,21,0,0,0,8.36,8.39,27,27,0,0,0,22.35,1.08,19.33,19.33,0,0,0,7.44-5.56l-4.41-5.39a16,16,0,0,1-12.73,5.56,16.24,16.24,0,0,1-10.86-3.69,14.67,14.67,0,0,1-5.12-9.78H653A25.16,25.16,0,0,0,653.17,230.09Zm-78,13.56a16,16,0,0,1-7.86-1.91,13.78,13.78,0,0,1-5.41-5.35,15.37,15.37,0,0,1-2-7.78,14.44,14.44,0,0,1,4.25-10.83,16.55,16.55,0,0,1,21.88,0,14.43,14.43,0,0,1,4.24,10.83,15.47,15.47,0,0,1-2,7.78,13.84,13.84,0,0,1-5.41,5.35A15.84,15.84,0,0,1,575.12,243.65Zm15.39-36.87v7.13a17.37,17.37,0,0,0-7-5.65,22.55,22.55,0,0,0-9.27-1.91,23.66,23.66,0,0,0-11.45,2.78,20.32,20.32,0,0,0-8,7.87,24.6,24.6,0,0,0,0,23.21,20.58,20.58,0,0,0,8,7.92A23.35,23.35,0,0,0,574.21,251a22.26,22.26,0,0,0,8.94-1.78,17.75,17.75,0,0,0,7-5.35v3.65q0,7.83-3.7,11.66T575,263a27.91,27.91,0,0,1-9.36-1.61A22.2,22.2,0,0,1,558,257l-3.83,6.44a23.31,23.31,0,0,0,9.15,5.08,39.36,39.36,0,0,0,11.9,1.78q11.4,0,17.14-5.78t5.75-17.86V206.78Zm-53.83-8.86a5.15,5.15,0,0,0,3.87-1.61,5.53,5.53,0,0,0,1.54-4,5.11,5.11,0,0,0-1.54-3.78,5.31,5.31,0,0,0-3.87-1.52,5.09,5.09,0,0,0-3.87,1.61,5.37,5.37,0,0,0-1.54,3.87,5.31,5.31,0,0,0,5.41,5.39Zm-4,55h8V206.78h-8Zm-33.11-46.52a22.09,22.09,0,0,0-9.37,1.91,15.73,15.73,0,0,0-6.53,5.48v-7H476v46.09h8V229.13q0-7.4,3.74-11.35T498,213.83q5.75,0,8.83,3.39t3.07,10.08v25.57h8V226.35q0-9.82-5-14.91T499.57,206.35Zm-49.43,8.17v-7.74h-7.66v46.09h8v-23q0-7.47,3.7-11.52t10.2-4a14.56,14.56,0,0,1,1.83.09v-8.09a21.4,21.4,0,0,0-9.9,2.09A13.93,13.93,0,0,0,450.14,214.52Zm-40.52-1.13a13.36,13.36,0,0,1,9.61,3.7,15,15,0,0,1,4.53,9.52H395.47A15,15,0,0,1,400,217,13.46,13.46,0,0,1,409.62,213.39Zm21.8,16.7a26.47,26.47,0,0,0-2.79-12.35,20.73,20.73,0,0,0-7.74-8.39,21.32,21.32,0,0,0-11.27-3,21.74,21.74,0,0,0-11.36,3,21.12,21.12,0,0,0-7.91,8.39,25.32,25.32,0,0,0-2.87,12.08,24.93,24.93,0,0,0,3,12.18,20.84,20.84,0,0,0,8.36,8.39,25.12,25.12,0,0,0,12.4,3,24.86,24.86,0,0,0,9.94-1.92,19.36,19.36,0,0,0,7.45-5.56l-4.41-5.39a16,16,0,0,1-12.73,5.56,16.24,16.24,0,0,1-10.86-3.69,14.67,14.67,0,0,1-5.12-9.78h35.78C431.36,231.56,431.42,230.72,431.42,230.09Zm-53.84-23.31-13.15,36.87-13.06-36.87h-6.74l-13.31,36.7-12.82-36.7h-7.57l16.39,46.09H335l12.89-35,12.74,35h7.65l16.48-46.09Z"/><path class="cls-1" d="M0,0V259.53H259.53V0ZM142.63,165.42a20.7,20.7,0,0,0,0-29.27,21.07,21.07,0,0,0-3.1-2.54H251.81v34.24H139.7A20.66,20.66,0,0,0,142.63,165.42ZM7.72,251.81V7.72H251.81v34.2H155.22v7.72h96.59V83.87H202.89a20.69,20.69,0,0,0-40.4,0H125.58v7.72h36.69a20.67,20.67,0,0,0,40.84,0h48.7v34.3H96v7.72h20.45a21.07,21.07,0,0,0-3.1,2.54,20.68,20.68,0,0,0,2.93,31.7H66.52v7.72H251.81v34.3H235a20.68,20.68,0,0,0-40.35,0H42.76v7.72H194.39a20.67,20.67,0,0,0,40.87,0h16.55v34.22Z"/></g></g></svg>